# xmcd
#
# Track frame offsets:
#	150
#	14454
#	29195
#	33909
#	44634
#	57833
#	71124
#	82891
#	95658
#	108870
#	121607
#	136214
#	148381
#	157876
#	171620
#	183093
#	196519
#	208566
#	221083
#	233180
#	245081
#
# Disc length: 3434 seconds
#
# Revision: 1
# Processed by: cddbd v1.5.1PL2 Copyright (c) Steve Scherf et al.
# Submitted via: audiograbber 1.83.01
#
DISCID=300d6815
DTITLE=Various Artist - (IEDS10001-1) Cradle Of Country and Western Music
DYEAR=1955
DGENRE=Country
TTITLE0=Bill Haley - Covered Wagon
TTITLE1=Jimmie Rodgers - Down On The Old Road To Home
TTITLE2=Gene Autry - Colorado Sunset
TTITLE3=Hank Williams - I Can´t Help It
TTITLE4=Hank Penny - Big Fat Papa
TTITLE5=Jimmie Rodgers - Train Whistle Blues
TTITLE6=W.Walker and G.Sullivan - When My Blue Moon
TTITLE7=Johnny Bond - Mean Mama Boogie
TTITLE8=Dud Adams - Income Tax
TTITLE9=Elmer Christian - A Rainy Sunday Night
TTITLE10=Clarence Ashley - House Carpenter
TTITLE11=Leon McAuliffe - Take It Away Len
TTITLE12=Johnny Bond - Red River Valley
TTITLE13=Blue Kazee - Butcher´s Boy
TTITLE14=Stanley Brothers - Fields Have Turned Brown
TTITLE15=Joe Werner - Runing Around
TTITLE16=Shelton Brothers - Aura Lee
TTITLE17=Leon McAuliffe - Panhandle Rag
TTITLE18=Ted Daffan - Born To Lose
TTITLE19=Keith Loyd - My Western Union Baby
TTITLE20=Texas Top Hands -  12Th Street Rag
EXTD=
EXTT0=
EXTT1=
EXTT2=
EXTT3=
EXTT4=
EXTT5=
EXTT6=
EXTT7=
EXTT8=
EXTT9=
EXTT10=
EXTT11=
EXTT12=
EXTT13=
EXTT14=
EXTT15=
EXTT16=
EXTT17=
EXTT18=
EXTT19=
EXTT20=
PLAYORDER=
